<svg width="547" height="132" viewBox="0 0 547 132" fill="none" xmlns="http://www.w3.org/2000/svg">
<g clip-path="url(#clip0_4703_36)">
<path d="M171.04 90.57C171.36 90.28 171.53 89.86 171.51 89.42V44.92C171.53 44.48 171.38 44.05 171.07 43.73C170.75 43.43 170.32 43.27 169.89 43.29H166.64C166.22 43.28 165.82 43.44 165.53 43.73C165.23 44.05 165.07 44.48 165.09 44.92V63.86H141.6V44.92C141.62 44.48 141.46 44.05 141.16 43.73C140.84 43.43 140.41 43.27 139.98 43.29H136.74C136.33 43.27 135.94 43.43 135.66 43.73C135.38 44.06 135.23 44.49 135.25 44.92V89.4C135.23 89.82 135.38 90.23 135.66 90.55V90.57C135.94 90.87 136.33 91.03 136.74 91.01H139.98C140.4 91.02 140.82 90.86 141.13 90.57C141.45 90.28 141.62 89.86 141.61 89.42V69.8H165.11V89.42C165.09 89.84 165.25 90.26 165.55 90.57C165.84 90.87 166.24 91.03 166.66 91.01H169.9C170.33 91.02 170.74 90.86 171.05 90.57M214.46 86.94C217.59 83.78 219.16 79 219.16 72.59V44.92C219.18 44.48 219.02 44.05 218.72 43.73C218.43 43.44 218.03 43.28 217.61 43.29H214.37C213.94 43.26 213.52 43.43 213.22 43.73C212.94 44.06 212.79 44.49 212.81 44.92V72.73C212.81 77.14 211.79 80.44 209.74 82.65C207.69 84.85 204.85 85.96 201.07 85.96C197.29 85.96 194.38 84.87 192.33 82.69C190.28 80.51 189.26 77.19 189.26 72.74V44.93C189.28 44.49 189.12 44.06 188.82 43.74C188.5 43.44 188.07 43.28 187.64 43.3H184.4C183.99 43.28 183.6 43.44 183.32 43.74C183.04 44.07 182.9 44.5 182.91 44.93V72.6C182.91 79.01 184.48 83.79 187.63 86.95C190.78 90.11 195.26 91.68 201.07 91.68C206.88 91.68 211.34 90.1 214.47 86.95M265.09 90.5C265.38 90.19 265.54 89.78 265.53 89.35V44.91C265.55 44.47 265.4 44.04 265.09 43.72C264.77 43.42 264.34 43.26 263.91 43.28H260.87C260.45 43.27 260.05 43.43 259.76 43.72C259.46 44.04 259.3 44.47 259.32 44.91V79.4L236.7 44.23C236.5 43.98 236.27 43.75 236.03 43.55C235.73 43.35 235.38 43.26 235.02 43.28H232.05C231.64 43.26 231.25 43.42 230.97 43.72C230.69 44.05 230.54 44.48 230.56 44.91V89.39C230.54 89.81 230.69 90.22 230.97 90.54V90.56C231.25 90.86 231.64 91.02 232.05 91H235.15C235.57 91.02 235.97 90.86 236.26 90.56C236.56 90.26 236.72 89.84 236.7 89.41V55.2L259.32 90.02C259.61 90.65 260.26 91.02 260.94 90.97H263.98C264.4 90.98 264.81 90.81 265.09 90.49M308.18 48.72C308.48 48.42 308.64 48 308.62 47.57V44.91C308.64 44.47 308.49 44.05 308.21 43.72C307.91 43.41 307.49 43.25 307.06 43.28H274.65C274.24 43.27 273.83 43.43 273.54 43.72C273.24 44.04 273.08 44.47 273.1 44.91V47.54C273.08 47.97 273.24 48.38 273.54 48.69C273.83 48.99 274.23 49.15 274.65 49.13H287.68V89.39C287.66 89.81 287.82 90.23 288.12 90.54L288.1 90.56C288.39 90.86 288.79 91.02 289.21 91H292.45C292.87 91.01 293.29 90.85 293.6 90.56C293.92 90.27 294.09 89.85 294.07 89.41V49.15H307.06C307.47 49.17 307.87 49.01 308.17 48.71M322.26 90.57C322.56 90.27 322.72 89.85 322.7 89.42V44.81C322.72 44.39 322.57 43.98 322.29 43.66C321.98 43.37 321.57 43.22 321.14 43.25H317.77C317.36 43.23 316.97 43.39 316.69 43.69C316.41 44.01 316.27 44.42 316.28 44.84V89.39C316.26 89.81 316.41 90.22 316.69 90.54V90.56C316.97 90.86 317.36 91.02 317.77 91H321.14C321.56 91.02 321.96 90.86 322.25 90.56M369.08 90.5C369.37 90.19 369.53 89.78 369.52 89.35V44.91C369.54 44.47 369.38 44.04 369.08 43.72C368.76 43.42 368.33 43.26 367.9 43.28H364.89C364.48 43.27 364.07 43.43 363.78 43.72C363.48 44.04 363.32 44.47 363.34 44.91V79.4L340.73 44.23C340.52 43.98 340.3 43.75 340.05 43.55C339.75 43.35 339.4 43.26 339.04 43.28H336.07C335.66 43.26 335.27 43.42 334.99 43.72C334.71 44.05 334.56 44.48 334.58 44.91V89.39C334.56 89.81 334.71 90.22 334.99 90.54L334.97 90.56C335.25 90.86 335.64 91.02 336.05 91H339.15C339.57 91.02 339.97 90.86 340.26 90.56C340.56 90.26 340.72 89.84 340.7 89.41V55.19L363.31 90.02C363.6 90.65 364.25 91.02 364.93 90.97H367.97C368.39 90.98 368.8 90.81 369.08 90.49M415.22 82.97C416.78 79.97 417.55 76.63 417.48 73.26V66.79C417.5 66.35 417.34 65.92 417.04 65.6C416.72 65.3 416.3 65.14 415.86 65.16H400.74C400.32 65.15 399.91 65.33 399.63 65.64C399.34 65.95 399.19 66.36 399.19 66.79V68.83C399.19 69.25 399.34 69.67 399.63 69.98C399.91 70.3 400.32 70.47 400.74 70.46H411.07V73.39C411.07 77.61 409.92 80.78 407.63 82.89C405.33 85.01 402.27 86.06 398.45 86.06C394.67 86.06 391.69 85.02 389.54 82.92C387.38 80.83 386.23 77.57 386.1 73.16C386.04 71.8 386.04 69.82 386.04 67.09C386.04 64.36 386.06 62.34 386.1 61.02C386.23 56.66 387.38 53.43 389.54 51.34C391.7 49.25 394.67 48.21 398.45 48.21C401.73 48.21 404.34 48.92 406.28 50.35C408.13 51.69 409.52 53.57 410.26 55.73C410.37 56.11 410.56 56.46 410.83 56.75C411.09 56.95 411.41 57.05 411.74 57.03H415.52C415.88 57.03 416.23 56.89 416.5 56.66C416.78 56.44 416.94 56.09 416.94 55.74V55.6C416.85 53.88 416.11 52 414.71 49.98C413.09 47.77 410.96 45.99 408.5 44.77C405.75 43.32 402.4 42.59 398.44 42.59C392.59 42.59 388.03 44.21 384.77 47.46C381.5 50.71 379.78 55.12 379.6 60.66C379.55 62.02 379.53 64.16 379.53 67.07C379.53 69.98 379.55 72.12 379.6 73.48C379.84 79.08 381.57 83.51 384.8 86.78H384.82C388.06 90.06 392.6 91.7 398.46 91.7C402 91.79 405.49 91 408.65 89.4C411.43 87.97 413.72 85.73 415.22 82.98M457.34 48.72C457.64 48.42 457.79 48 457.78 47.57V44.91C457.8 44.47 457.66 44.05 457.37 43.72C457.07 43.41 456.65 43.25 456.22 43.28H423.81C423.4 43.27 422.99 43.43 422.7 43.72C422.4 44.04 422.24 44.47 422.26 44.91V47.54C422.24 47.97 422.4 48.38 422.7 48.69C422.99 48.99 423.39 49.15 423.81 49.13H436.84V89.39C436.82 89.81 436.98 90.23 437.28 90.54V90.56C437.57 90.86 437.97 91.02 438.39 91H441.63C442.05 91.01 442.47 90.85 442.78 90.56C443.1 90.27 443.27 89.85 443.26 89.41V49.15H456.23C456.65 49.17 457.05 49.01 457.34 48.71M493.68 67.13C493.68 68.04 493.63 69.86 493.54 72.58C493.36 77.13 492.19 80.5 490.03 82.7V82.72C487.87 84.92 485.03 86.03 481.39 86.03C477.75 86.03 474.84 84.93 472.68 82.72C470.52 80.51 469.37 77.14 469.24 72.6C469.17 71.24 469.17 69.47 469.17 67.15C469.17 64.83 469.19 63.02 469.24 61.7C469.37 57.16 470.53 53.77 472.72 51.55C474.91 49.32 477.79 48.21 481.39 48.21C484.99 48.19 487.87 49.29 490.03 51.53C492.19 53.76 493.36 57.14 493.54 61.68C493.63 64.31 493.68 66.22 493.68 67.13ZM499.96 72.95C500.05 70.22 500.1 68.34 500.1 67.15C500.1 65.96 500.05 64.04 499.96 61.41C499.78 55.23 498.05 50.55 494.77 47.37C491.48 44.19 487.03 42.6 481.4 42.6C475.78 42.6 471.32 44.18 468 47.37C464.69 50.56 462.94 55.23 462.77 61.41C462.7 62.75 462.7 64.65 462.7 67.15C462.7 69.65 462.72 71.58 462.77 72.95C462.95 79.22 464.64 83.91 467.83 87.02C471.03 90.13 475.55 91.68 481.4 91.68C487.25 91.68 491.76 90.13 494.93 87.01C498.1 83.89 499.78 79.2 499.96 72.94M545.05 89.35V44.91C545.07 44.47 544.91 44.04 544.61 43.72C544.29 43.42 543.86 43.26 543.43 43.28H540.39C539.98 43.27 539.57 43.43 539.28 43.72C538.98 44.04 538.82 44.47 538.84 44.91V79.4L516.23 44.23C516.02 43.98 515.8 43.75 515.55 43.55C515.25 43.35 514.9 43.26 514.54 43.28H511.57C511.16 43.26 510.77 43.42 510.49 43.72C510.21 44.05 510.06 44.48 510.08 44.91V89.39C510.06 89.81 510.21 90.22 510.49 90.54V90.56C510.77 90.86 511.16 91.02 511.57 91H514.67C515.09 91.02 515.49 90.86 515.78 90.56C516.08 90.26 516.24 89.84 516.22 89.41V55.19L538.83 90.02C539.12 90.65 539.77 91.02 540.45 90.97H543.49C543.91 90.98 544.32 90.81 544.6 90.49C544.89 90.18 545.05 89.77 545.04 89.34" fill="white"/>
<path d="M130.59 28.86L101.36 32.01C101.36 32.01 79.31 21.41 76.14 52.81C83.93 66.62 86.37 80.24 81.99 92.6C88.18 87.76 94.75 80.21 96.41 67.79C97.37 60.62 98.01 40.3 100.47 39.14L130.58 28.85L130.59 28.86Z" fill="#A2C746"/>
<path d="M1.67824e-06 27.69C20.25 45.99 38.18 65.43 48.35 88.66L48.39 88.6C53.68 81.14 59.71 73.03 66.3 64.75C61.83 58.39 55.17 52.7 46.73 47.53C34.43 39.92 18.36 33.47 -0.00999832 27.69" fill="#F5A732"/>
<path d="M20.86 0C30.99 15.58 40.06 31.31 46.75 47.49C55.18 52.66 61.85 58.4 66.31 64.71C67.89 62.74 69.48 60.76 71.12 58.77C71.12 58.77 71.17 58.71 71.19 58.68C72.81 56.71 74.46 54.74 76.13 52.78C65.85 34.56 46.49 16.32 20.86 0Z" fill="#EB526E"/>
<path d="M26.03 122.44L58.06 100.78C66.71 100.71 75.11 97.82 81.98 92.58C86.35 80.22 83.92 66.6 76.13 52.79C47.39 86.49 26.02 122.44 26.02 122.44" fill="#00B0D8"/>
<path d="M477.66 121.07C477.61 119.73 477.66 118.39 477.66 117.04H477.64C477.64 116.13 477.28 115.79 476.37 115.78H471.32C470.74 115.74 470.24 116.17 470.2 116.75C470.2 116.81 470.2 116.86 470.2 116.91C470.2 117.56 470.6 117.91 471.32 117.91H475.13C475.41 117.91 475.51 117.98 475.5 118.27C475.48 119.08 475.5 119.9 475.5 120.72C475.5 120.9 475.44 121.08 475.31 121.21C473.85 122.78 472.05 123.42 469.96 123.01C467.17 122.47 465.13 119.78 465.04 116.89C464.93 114.83 465.87 112.85 467.55 111.65C470.1 109.69 473.32 109.93 475.31 112.16C475.48 112.38 475.74 112.52 476.02 112.54C476.48 112.57 476.91 112.31 477.1 111.89C477.32 111.45 477.23 110.91 476.86 110.57C474.56 108.26 471.75 107.61 468.72 108.51C462.59 110.36 460.73 118.42 465.29 122.97C468.46 126.11 473.58 126.09 476.72 122.92C476.77 122.87 476.81 122.83 476.85 122.78C477.3 122.3 477.69 121.81 477.66 121.04M489.51 117.14C488.94 117.3 488.36 117.36 487.77 117.36C486.27 117.36 484.77 117.34 483.27 117.36C482.89 117.36 482.81 117.23 482.82 116.89C482.84 115.92 482.82 114.95 482.82 113.98V111.02C482.82 110.72 482.87 110.58 483.22 110.59C484.75 110.61 486.28 110.57 487.81 110.61C489.16 110.65 490.42 111 491.31 112.11C492.5 113.6 492.46 116.39 489.51 117.15M494.3 114.51C494.37 112.93 493.98 111.49 492.83 110.33C491.51 109 489.84 108.52 488.04 108.47V108.45C485.95 108.4 483.86 108.43 481.77 108.45C481.01 108.45 480.59 108.87 480.59 109.62V124.06C480.59 124.81 481 125.23 481.71 125.23C482.42 125.23 482.83 124.81 482.83 124.06V119.86C482.83 119.54 482.92 119.44 483.24 119.44C484.49 119.46 485.75 119.44 487 119.44C487.23 119.44 487.45 119.54 487.59 119.73C489.14 121.45 490.69 123.17 492.25 124.88C492.73 125.41 493.37 125.46 493.85 125.04C494.31 124.68 494.38 124.02 494.02 123.56C493.99 123.52 493.95 123.48 493.91 123.44C493.29 122.75 492.66 122.07 492.04 121.38L490.13 119.25C491.01 119.06 491.83 118.69 492.55 118.16C493.74 117.23 494.24 115.95 494.31 114.49M510.39 117.07C510.36 118.7 509.73 120.26 508.63 121.45C506.03 124.2 500.76 123.75 499.1 119.49C498.2 117.18 498.26 114.86 499.67 112.73C500.93 110.82 502.82 110.17 505.05 110.37C508.1 110.64 510.42 113.31 510.39 117.07ZM509.81 123.35C512.2 121.13 512.99 118.31 512.54 115.16C511.83 110.22 506.91 107 501.84 108.54C498.41 109.58 496.25 112.73 496.26 116.8C496.26 117.45 496.32 118.1 496.46 118.74C496.9 120.78 497.84 122.51 499.54 123.79C500.78 124.72 502.27 125.26 503.81 125.35C506.1 125.52 508.13 124.91 509.81 123.35ZM530.56 118.04C530.61 115.16 530.56 112.27 530.56 109.39C530.57 109.1 530.47 108.8 530.27 108.58C529.94 108.22 529.43 108.1 528.98 108.28C528.51 108.45 528.22 108.91 528.26 109.4V117.82C528.24 121.7 524.83 123.51 521.83 122.85C519.31 122.29 517.79 120.37 517.79 117.77V109.44C517.84 108.98 517.57 108.55 517.14 108.38C516.27 108.01 515.48 108.55 515.48 109.53V117.67C515.46 119.02 515.77 120.34 516.4 121.53C517.94 124.32 521.09 125.65 524.19 125.2C527.96 124.65 530.51 121.78 530.58 118.04M544 114.4C544.08 116.24 542.83 117.74 540.92 118.08C540.53 118.16 540.12 118.19 539.72 118.19H535.82C535.5 118.19 535.37 118.13 535.37 117.76C535.4 116.63 535.37 115.5 535.37 114.38V111C535.37 110.68 535.42 110.54 535.79 110.55C537.25 110.58 538.7 110.55 540.15 110.59C542.22 110.68 543.88 112.32 543.98 114.39M545.65 111.9C544.56 109.57 542.58 108.56 540.11 108.47C538.25 108.4 536.39 108.45 534.54 108.45C533.55 108.45 533.16 108.83 533.16 109.8V124.05C533.16 124.81 533.61 125.29 534.29 125.28C534.97 125.28 535.39 124.8 535.4 124.06V120.78C535.4 120.4 535.48 120.29 535.88 120.29C537.59 120.27 539.31 120.41 541.02 120.21C542.26 120.09 543.43 119.6 544.38 118.81C546.35 117.16 546.66 114.04 545.66 111.89" fill="white"/>
<path d="M395.36 116.35H384.27C383.93 116.35 383.88 116.26 383.9 115.94C384.12 113.09 386.41 110.85 389.26 110.68C392.66 110.42 395.34 112.62 395.73 115.97C395.77 116.35 395.64 116.36 395.35 116.36M397.98 117.03C397.98 116.74 397.98 116.44 397.96 116.14C397.64 111.73 394.77 108.83 390.36 108.44C386.7 108.06 383.39 110.32 382.12 113.77C381.76 114.75 381.48 116.89 381.78 118.75C382.3 121.12 383.37 123.12 385.61 124.31C387.57 125.34 389.83 125.64 391.99 125.15C393.33 124.92 394.56 124.29 395.52 123.34C395.98 122.95 396.04 122.26 395.65 121.8C395.22 121.35 394.52 121.32 394.06 121.74C393.08 122.53 391.89 123.01 390.64 123.14C387.39 123.52 384.8 121.68 384.08 118.89C383.99 118.53 384.12 118.34 384.49 118.34H396.09C397.48 118.34 398.03 117.67 397.99 117.02M416.31 123.95V109.88C416.31 109.68 416.29 109.48 416.25 109.29C416.16 108.93 415.88 108.65 415.53 108.57C414.58 108.3 413.95 108.79 413.94 109.84V117.24C413.96 118.5 413.56 119.73 412.81 120.74C411.45 122.58 409.62 123.54 407.31 123.23C404.81 122.88 403.14 120.87 403.11 118.34C403.08 115.56 403.11 112.79 403.11 110.01C403.11 109.79 403.09 109.58 403.06 109.36C403 108.95 402.69 108.62 402.28 108.55C401.4 108.33 400.8 108.78 400.8 109.68V118.51C400.8 118.88 400.83 119.25 400.89 119.62C401.86 125.61 408.88 126.95 412.53 123.99C413.12 123.48 413.62 122.86 414 122.18V124.15C413.99 124.78 414.49 125.31 415.13 125.32C415.37 125.32 415.6 125.25 415.8 125.12C416.23 124.85 416.31 124.42 416.31 123.95ZM433.8 108.57C433.8 108.57 433.8 108.57 433.82 108.57H433.8ZM432.6 116.9C432.66 117.65 432.64 118.41 432.55 119.16C432.13 121.27 430.42 122.88 428.29 123.17C425.23 123.67 422.36 121.6 421.86 118.54C421.85 118.46 421.83 118.37 421.82 118.28C421.58 116.51 421.8 114.83 422.79 113.31C424.41 110.82 427.32 110.01 430.01 111.28C431.56 111.94 432.57 113.45 432.6 115.13C432.64 115.72 432.6 116.3 432.6 116.89M434.91 124.63C434.95 119.68 434.91 114.73 434.91 109.78C434.91 109.03 434.5 108.6 433.8 108.57C433.1 108.55 432.63 108.85 432.64 109.7C432.64 110.23 432.64 110.84 432.64 110.84C432.64 110.84 431.18 109.19 429.86 108.85C426.35 107.69 422.51 109.13 420.64 112.32C419.54 114.22 419.14 116.45 419.52 118.61C419.94 121.33 421.31 123.46 423.83 124.7C426.54 126.05 430.71 125.96 432.7 122.74V124.46C432.68 126.5 431.69 128.04 429.77 128.74C427.2 129.67 424.79 129.37 422.63 127.59C422.05 127.11 421.38 127.15 420.94 127.64C420.5 128.13 420.56 128.75 421.1 129.29C421.76 129.97 422.55 130.5 423.42 130.86C425.27 131.58 427.3 131.74 429.24 131.32C432.71 130.67 434.89 128.14 434.92 124.63M441.04 106.31V104.83C441.08 104.23 440.63 103.71 440.02 103.68H439.88C439.28 103.61 438.75 104.04 438.69 104.64C438.69 104.69 438.69 104.74 438.69 104.79V106.31C438.77 106.96 439.35 107.42 440 107.34C440.54 107.28 440.97 106.85 441.03 106.31M441.04 124.17V109.88C441.04 109.11 440.62 108.67 439.9 108.66C439.17 108.66 438.72 109.13 438.72 109.9V124.18C438.67 124.57 438.86 124.96 439.19 125.17C439.59 125.43 440.1 125.44 440.51 125.21C440.88 125 441.09 124.59 441.04 124.16M451.26 108.52C451.26 108.52 451.26 108.52 451.27 108.52H451.25H451.26ZM459.97 124.07V115.51C459.97 115.03 459.92 114.56 459.82 114.09C459.08 110 455.21 107.79 451.27 108.51C449.41 108.79 447.76 109.87 446.75 111.46V109.81C446.8 109.33 446.54 108.88 446.1 108.68C445.27 108.31 444.47 108.86 444.47 109.8V123.82C444.47 124.81 444.87 125.27 445.55 125.3C446.54 125.34 446.79 124.81 446.8 123.87C446.8 121.37 446.75 119.14 446.82 116.65C446.88 114.04 448.13 112.12 450.54 111.05C454.04 109.49 457.65 111.88 457.65 115.69V124.02C457.65 124.89 458.06 125.35 458.83 125.36C459.6 125.37 459.97 124.92 459.97 124.07Z" fill="white"/>
</g>
<defs>
<clipPath id="clip0_4703_36">
<rect width="546.2" height="131.55" fill="white"/>
</clipPath>
</defs>
</svg>
