<svg width="572" height="147" viewBox="0 0 572 147" fill="none" xmlns="http://www.w3.org/2000/svg">
<g clip-path="url(#clip0_4703_46)">
<path d="M179.03 94.8C179.37 94.5 179.55 94.06 179.52 93.6V47.02C179.54 46.56 179.38 46.11 179.06 45.77C178.73 45.45 178.28 45.28 177.82 45.31H174.42C173.98 45.3 173.56 45.47 173.25 45.77C172.93 46.1 172.76 46.56 172.79 47.02V66.85H148.21V47.02C148.23 46.56 148.06 46.11 147.75 45.77C147.42 45.45 146.97 45.28 146.51 45.31H143.12C142.69 45.29 142.28 45.46 141.99 45.77C141.69 46.12 141.55 46.56 141.56 47.02V93.58C141.53 94.02 141.69 94.45 141.99 94.78V94.8C142.28 95.11 142.69 95.29 143.12 95.26H146.51C146.95 95.27 147.39 95.1 147.71 94.8C148.04 94.5 148.23 94.06 148.21 93.6V73.06H172.81V93.6C172.79 94.04 172.96 94.48 173.27 94.8C173.58 95.11 174 95.28 174.44 95.26H177.83C178.27 95.27 178.71 95.1 179.03 94.8ZM224.49 91C227.76 87.7 229.4 82.69 229.4 75.98V47.02C229.42 46.56 229.25 46.11 228.94 45.77C228.63 45.46 228.21 45.29 227.77 45.31H224.38C223.93 45.28 223.49 45.45 223.18 45.77C222.88 46.12 222.74 46.56 222.75 47.02V76.13C222.75 80.74 221.68 84.2 219.53 86.51C217.39 88.82 214.41 89.97 210.45 89.97C206.49 89.97 203.45 88.83 201.3 86.55C199.16 84.27 198.09 80.79 198.09 76.13V47.02C198.11 46.56 197.94 46.11 197.63 45.77C197.3 45.45 196.85 45.28 196.39 45.31H193C192.57 45.29 192.16 45.46 191.87 45.77C191.58 46.12 191.43 46.56 191.44 47.02V75.98C191.44 82.69 193.09 87.69 196.39 91C199.69 94.3 204.38 95.96 210.45 95.96C216.52 95.96 221.2 94.31 224.47 91M277.49 94.73C277.79 94.41 277.96 93.97 277.94 93.53V47.02C277.97 46.56 277.8 46.11 277.49 45.77C277.16 45.45 276.71 45.28 276.25 45.31H273.07C272.63 45.3 272.21 45.47 271.9 45.77C271.58 46.1 271.42 46.56 271.44 47.02V83.12L247.76 46.3C247.55 46.04 247.32 45.8 247.06 45.58C246.75 45.37 246.38 45.27 246 45.3H242.89C242.46 45.28 242.05 45.45 241.76 45.76C241.47 46.11 241.32 46.55 241.33 47.01V93.57C241.3 94.01 241.46 94.44 241.76 94.77V94.79C242.05 95.1 242.46 95.28 242.89 95.25H246.14C246.58 95.27 247 95.1 247.31 94.79C247.62 94.47 247.79 94.03 247.76 93.59V57.78L271.44 94.22C271.74 94.87 272.42 95.27 273.13 95.22H276.31C276.75 95.23 277.18 95.05 277.48 94.72M322.59 51C322.9 50.68 323.07 50.24 323.05 49.8V47.02C323.07 46.56 322.92 46.12 322.62 45.77C322.31 45.45 321.87 45.28 321.42 45.31H287.5C287.07 45.3 286.64 45.47 286.33 45.77C286.01 46.1 285.85 46.56 285.88 47.02V49.78C285.85 50.22 286.02 50.66 286.33 50.98C286.64 51.29 287.06 51.46 287.5 51.44H301.14V93.58C301.11 94.02 301.28 94.46 301.59 94.78L301.57 94.8C301.88 95.11 302.3 95.28 302.74 95.26H306.14C306.58 95.27 307.02 95.1 307.34 94.8C307.68 94.5 307.86 94.06 307.83 93.6V51.46H321.43C321.86 51.48 322.28 51.31 322.59 51ZM337.33 94.8C337.64 94.48 337.81 94.04 337.79 93.6V46.91C337.82 46.47 337.66 46.04 337.36 45.71C337.04 45.41 336.6 45.26 336.16 45.28H332.63C332.2 45.26 331.79 45.43 331.5 45.74C331.21 46.07 331.06 46.5 331.07 46.94V93.57C331.05 94.01 331.2 94.44 331.5 94.77V94.79C331.79 95.1 332.2 95.27 332.63 95.25H336.16C336.6 95.27 337.02 95.1 337.33 94.79M386.34 94.73C386.65 94.41 386.81 93.97 386.81 93.53V47.02C386.83 46.56 386.66 46.11 386.34 45.77C386.01 45.45 385.56 45.28 385.1 45.31H381.95C381.52 45.3 381.09 45.47 380.78 45.77C380.46 46.1 380.3 46.56 380.32 47.02V83.12L356.65 46.3C356.43 46.04 356.2 45.8 355.94 45.58C355.63 45.37 355.26 45.27 354.88 45.3H351.77C351.34 45.28 350.93 45.45 350.64 45.76C350.35 46.11 350.2 46.55 350.21 47.01V93.57C350.19 94.01 350.34 94.44 350.64 94.77L350.62 94.79C350.91 95.1 351.32 95.27 351.75 95.25H355C355.44 95.27 355.86 95.1 356.17 94.79C356.48 94.47 356.65 94.03 356.63 93.59V57.77L380.3 94.23C380.6 94.88 381.28 95.28 381.99 95.23H385.17C385.61 95.24 386.04 95.06 386.34 94.73ZM434.64 86.85C436.27 83.71 437.08 80.22 437.01 76.68V69.9C437.03 69.44 436.86 68.99 436.55 68.65C436.22 68.33 435.77 68.16 435.32 68.19H419.49C419.05 68.18 418.63 68.36 418.32 68.69C418.02 69.01 417.86 69.45 417.87 69.89V72.03C417.87 72.47 418.03 72.91 418.32 73.23C418.61 73.56 419.04 73.74 419.49 73.73H430.31V76.8C430.31 81.22 429.11 84.53 426.7 86.75C424.3 88.97 421.1 90.07 417.09 90.07C413.13 90.07 410.02 88.98 407.76 86.78C405.5 84.58 404.3 81.18 404.16 76.57C404.09 75.15 404.09 73.07 404.09 70.22C404.09 67.37 404.11 65.25 404.16 63.87C404.3 59.31 405.5 55.93 407.76 53.74C410.02 51.55 413.13 50.46 417.09 50.46C420.52 50.46 423.25 51.21 425.29 52.7C427.22 54.1 428.68 56.07 429.45 58.34C429.56 58.74 429.77 59.1 430.05 59.41C430.32 59.62 430.66 59.72 431 59.7H434.96C435.34 59.7 435.7 59.56 435.99 59.31C436.28 59.08 436.45 58.71 436.45 58.34V58.19C436.36 56.39 435.58 54.42 434.12 52.3C432.42 49.99 430.19 48.12 427.62 46.85C424.74 45.33 421.23 44.57 417.09 44.57C410.97 44.57 406.2 46.26 402.78 49.67C399.36 53.07 397.56 57.68 397.37 63.49C397.32 64.92 397.3 67.15 397.3 70.2C397.3 73.25 397.33 75.48 397.37 76.91C397.62 82.77 399.43 87.41 402.81 90.83H402.84C406.23 94.26 410.99 95.98 417.11 95.98C420.81 96.07 424.47 95.25 427.77 93.58C430.68 92.08 433.08 89.74 434.64 86.86M478.73 51C479.04 50.68 479.21 50.24 479.19 49.8V47.02C479.21 46.56 479.06 46.12 478.76 45.77C478.45 45.45 478.01 45.28 477.56 45.31H443.64C443.21 45.3 442.78 45.47 442.47 45.77C442.15 46.1 441.99 46.56 442.01 47.02V49.78C441.99 50.22 442.16 50.66 442.47 50.98C442.78 51.29 443.2 51.46 443.64 51.44H457.28V93.58C457.26 94.02 457.43 94.46 457.74 94.78V94.8C458.04 95.11 458.47 95.28 458.91 95.26H462.3C462.74 95.27 463.18 95.1 463.5 94.8C463.83 94.5 464.02 94.06 464 93.6V51.46H477.57C478.01 51.48 478.43 51.31 478.74 51M516.77 70.27C516.77 71.23 516.72 73.12 516.63 75.98C516.44 80.74 515.22 84.27 512.96 86.58V86.61C510.7 88.92 507.73 90.07 503.91 90.07C500.09 90.07 497.05 88.91 494.8 86.61C492.54 84.3 491.34 80.77 491.19 76.01C491.12 74.58 491.12 72.73 491.12 70.3C491.12 67.87 491.14 65.98 491.19 64.59C491.33 59.84 492.54 56.29 494.83 53.96C497.12 51.63 500.14 50.46 503.91 50.46C507.68 50.44 510.69 51.59 512.96 53.93C515.22 56.27 516.45 59.81 516.63 64.56C516.72 67.32 516.77 69.31 516.77 70.27ZM523.33 76.36C523.43 73.51 523.48 71.54 523.48 70.29C523.48 69.04 523.43 67.04 523.33 64.28C523.15 57.81 521.34 52.91 517.89 49.59C514.45 46.26 509.79 44.6 503.9 44.6C498.02 44.6 493.34 46.26 489.88 49.59C486.41 52.93 484.59 57.82 484.4 64.29C484.33 65.69 484.33 67.68 484.33 70.3C484.33 72.92 484.35 74.94 484.4 76.37C484.59 82.94 486.35 87.84 489.7 91.1C493.05 94.35 497.78 95.98 503.9 95.98C510.02 95.98 514.74 94.36 518.07 91.1C521.39 87.84 523.15 82.93 523.33 76.37M570.54 93.53V47.02C570.56 46.56 570.4 46.11 570.08 45.77C569.75 45.45 569.3 45.28 568.84 45.31H565.66C565.23 45.3 564.8 45.47 564.49 45.77C564.17 46.1 564.01 46.56 564.03 47.02V83.12L540.36 46.3C540.14 46.04 539.91 45.8 539.65 45.58C539.34 45.37 538.97 45.27 538.59 45.3H535.48C535.05 45.28 534.64 45.45 534.35 45.76C534.06 46.11 533.91 46.55 533.92 47.01V93.57C533.9 94.01 534.05 94.44 534.35 94.77V94.79C534.64 95.1 535.05 95.27 535.48 95.25H538.73C539.17 95.27 539.59 95.1 539.9 94.79C540.21 94.47 540.38 94.03 540.36 93.59V57.77L564.03 94.23C564.33 94.88 565.01 95.28 565.72 95.23H568.9C569.34 95.24 569.77 95.06 570.07 94.73C570.38 94.41 570.54 93.97 570.53 93.53" fill="#717171"/>
<path d="M136.69 30.21L106.1 33.5C106.1 33.5 83.03 22.41 79.7 55.27C87.86 69.72 90.41 83.99 85.83 96.92C92.31 91.85 99.19 83.95 100.93 70.95C101.93 63.45 102.6 42.17 105.18 40.96L136.7 30.19L136.69 30.21Z" fill="#A2C746"/>
<path d="M0 28.98C21.2 48.14 39.96 68.49 50.61 92.8L50.65 92.73C56.19 84.92 62.5 76.43 69.4 67.77C64.73 61.12 57.74 55.16 48.92 49.75C36.04 41.78 19.22 35.03 0 28.98Z" fill="#F5A732"/>
<path d="M21.84 0C32.44 16.31 41.94 32.77 48.94 49.71C57.76 55.12 64.75 61.12 69.41 67.73C71.06 65.67 72.73 63.59 74.44 61.51C74.44 61.51 74.5 61.45 74.52 61.42C76.21 59.36 77.94 57.29 79.69 55.24C68.93 36.17 48.67 17.09 21.84 0Z" fill="#EB526E"/>
<path d="M27.25 128.16L60.78 105.49C69.83 105.41 78.62 102.4 85.82 96.91C90.4 83.98 87.85 69.71 79.69 55.26C49.6 90.53 27.24 128.16 27.24 128.16" fill="#00B0D8"/>
<path d="M479.53 131.93C479.46 130.13 479.53 128.32 479.53 126.51L479.51 126.49C479.51 125.29 479.03 124.82 477.8 124.81H471.01C470.24 124.75 469.56 125.34 469.5 126.11C469.5 126.18 469.5 126.26 469.5 126.33C469.5 127.2 470.04 127.67 471.01 127.67H476.13C476.51 127.67 476.64 127.76 476.63 128.16C476.6 129.26 476.63 130.36 476.63 131.46C476.64 131.71 476.55 131.95 476.38 132.12C474.42 134.24 472 135.09 469.18 134.54C465.43 133.82 462.69 130.19 462.56 126.31C462.41 123.54 463.68 120.88 465.94 119.26C469.38 116.62 473.7 116.94 476.38 119.95C476.61 120.25 476.96 120.44 477.34 120.46C477.96 120.5 478.54 120.16 478.79 119.59C479.09 118.99 478.96 118.27 478.47 117.82C475.38 114.71 471.59 113.84 467.52 115.05C459.27 117.54 456.77 128.38 462.9 134.51C467.16 138.74 474.05 138.71 478.28 134.45C478.34 134.39 478.4 134.33 478.46 134.26C479.07 133.61 479.58 132.95 479.55 131.92M495.47 126.64C494.7 126.85 493.92 126.94 493.13 126.93C491.12 126.93 489.1 126.91 487.08 126.93C486.56 126.93 486.47 126.76 486.47 126.3C486.5 124.99 486.47 123.69 486.47 122.38V118.4C486.47 117.99 486.54 117.81 487.01 117.82C489.07 117.85 491.13 117.79 493.19 117.85C495 117.9 496.7 118.38 497.89 119.86C499.49 121.86 499.44 125.62 495.47 126.64ZM501.92 123.11C502.02 120.98 501.49 119.05 499.94 117.49C498.17 115.7 495.92 115.05 493.49 114.99V114.96C490.68 114.89 487.87 114.94 485.06 114.96C484.04 114.96 483.47 115.52 483.47 116.53V135.95C483.47 136.96 484.02 137.52 484.98 137.52C485.94 137.52 486.49 136.96 486.49 135.95V130.29C486.49 129.86 486.61 129.73 487.05 129.73C488.74 129.75 490.43 129.73 492.11 129.73C492.42 129.73 492.71 129.87 492.9 130.12C494.98 132.44 497.07 134.75 499.17 137.05C499.82 137.77 500.67 137.83 501.32 137.26C501.93 136.77 502.03 135.89 501.55 135.27C501.51 135.21 501.45 135.16 501.4 135.11C500.57 134.18 499.72 133.27 498.89 132.34L496.32 129.48C497.5 129.23 498.61 128.73 499.58 128.02C501.18 126.76 501.85 125.05 501.94 123.09M523.57 126.56C523.53 128.75 522.69 130.85 521.2 132.45C517.7 136.15 510.61 135.55 508.38 129.81C507.17 126.71 507.25 123.58 509.14 120.72C510.84 118.15 513.38 117.28 516.38 117.54C520.48 117.9 523.6 121.49 523.57 126.56ZM522.79 135C526 132.01 527.07 128.23 526.46 123.99C525.51 117.34 518.89 113.01 512.06 115.09C507.44 116.49 504.54 120.73 504.55 126.21C504.55 127.09 504.63 127.96 504.82 128.82C505.41 131.57 506.68 133.9 508.96 135.62C510.63 136.87 512.63 137.6 514.71 137.71C517.79 137.93 520.53 137.11 522.78 135.01M550.7 127.85C550.76 123.97 550.7 120.09 550.7 116.21C550.72 115.81 550.58 115.42 550.31 115.13H550.3C549.86 114.65 549.17 114.49 548.56 114.73C547.93 114.96 547.54 115.57 547.59 116.24V127.57C547.56 132.79 542.97 135.22 538.95 134.33C535.56 133.58 533.52 131 533.51 127.5V116.29C533.57 115.67 533.22 115.09 532.64 114.86C531.47 114.36 530.41 115.08 530.4 116.4V127.35C530.37 129.16 530.8 130.94 531.64 132.55C533.7 136.31 537.94 138.1 542.12 137.49C547.19 136.75 550.63 132.89 550.71 127.86M568.78 122.95C568.89 125.43 567.2 127.44 564.63 127.91C564.1 128.01 563.56 128.06 563.02 128.06H557.77C557.34 128.06 557.16 127.97 557.17 127.48C557.21 125.96 557.17 124.43 557.17 122.94V118.39C557.17 117.96 557.24 117.78 557.74 117.78C559.7 117.82 561.66 117.78 563.61 117.83C566.39 117.95 568.62 120.16 568.77 122.94M570.99 119.59C569.52 116.46 566.86 115.1 563.53 114.97C561.03 114.88 558.53 114.95 556.03 114.95C554.7 114.95 554.17 115.47 554.17 116.77V135.94C554.17 136.96 554.78 137.61 555.69 137.6C556.61 137.59 557.17 136.95 557.18 135.96V131.54C557.18 131.03 557.29 130.88 557.82 130.88C560.13 130.86 562.44 131.05 564.74 130.77C566.4 130.61 567.98 129.95 569.27 128.89C571.92 126.67 572.34 122.47 570.99 119.58" fill="#98C6E9"/>
<path d="M368.81 125.57H353.89C353.43 125.57 353.36 125.44 353.4 125.01H353.41C353.7 121.18 356.79 118.16 360.62 117.93C365.19 117.58 368.8 120.54 369.32 125.04C369.38 125.55 369.2 125.57 368.81 125.57ZM372.34 126.49C372.34 126.1 372.34 125.69 372.31 125.3C371.88 119.37 368.01 115.47 362.09 114.95C357.17 114.44 352.71 117.48 351 122.12C350.51 123.44 350.13 126.32 350.54 128.82C351.25 132 352.68 134.69 355.69 136.3C358.32 137.68 361.37 138.08 364.28 137.43C366.08 137.12 367.74 136.28 369.03 134.99C369.65 134.46 369.73 133.54 369.2 132.91C368.62 132.31 367.68 132.27 367.06 132.82C365.74 133.88 364.14 134.53 362.45 134.7C358.07 135.22 354.6 132.74 353.63 128.99C353.5 128.5 353.69 128.25 354.18 128.25H369.79C371.66 128.26 372.4 127.35 372.34 126.47M396.99 135.8V116.88C396.99 116.61 396.97 116.34 396.9 116.08H396.91C396.79 115.6 396.42 115.22 395.94 115.11C394.67 114.74 393.81 115.41 393.81 116.81V126.76C393.84 128.46 393.3 130.11 392.29 131.47C390.46 133.94 387.99 135.24 384.9 134.82C381.54 134.35 379.29 131.64 379.24 128.24C379.2 124.5 379.24 120.77 379.24 117.04C379.24 116.75 379.22 116.46 379.17 116.17C379.1 115.62 378.67 115.18 378.12 115.08C376.94 114.79 376.13 115.38 376.13 116.6V128.48C376.13 128.98 376.17 129.48 376.26 129.97C377.57 138.02 387.01 139.84 391.92 135.85C392.71 135.16 393.38 134.34 393.9 133.42V136.07C393.88 136.92 394.56 137.63 395.41 137.65C395.73 137.65 396.05 137.56 396.31 137.38C396.89 137.01 396.99 136.44 396.99 135.81M420.52 115.11C420.52 115.11 420.52 115.11 420.53 115.11C420.53 115.11 420.54 115.11 420.55 115.11H420.52ZM418.91 126.32C418.99 127.33 418.97 128.36 418.84 129.37C418.28 132.21 415.97 134.38 413.11 134.77C409 135.44 405.13 132.65 404.46 128.54C404.44 128.42 404.43 128.31 404.41 128.19C404.09 125.81 404.39 123.55 405.71 121.51C407.88 118.16 411.8 117.07 415.43 118.78C417.51 119.67 418.87 121.7 418.91 123.96C418.96 124.75 418.91 125.53 418.91 126.32ZM422.02 136.72C422.08 130.06 422.02 123.4 422.02 116.74C422.02 115.74 421.47 115.16 420.53 115.11C419.59 115.08 418.96 115.49 418.97 116.63C418.96 117.35 418.96 118.16 418.96 118.16C418.96 118.16 417 115.94 415.22 115.48C410.5 113.92 405.33 115.86 402.82 120.14C401.34 122.7 400.8 125.7 401.31 128.61C401.87 132.27 403.73 135.13 407.1 136.81C410.74 138.63 416.35 138.51 419.03 134.17V136.49C419.01 139.23 417.67 141.3 415.08 142.25C411.62 143.5 408.38 143.09 405.48 140.7C404.7 140.06 403.79 140.1 403.2 140.76C402.61 141.42 402.7 142.25 403.42 142.98C404.31 143.89 405.37 144.61 406.55 145.1C409.04 146.07 411.77 146.29 414.38 145.72C419.05 144.85 421.99 141.44 422.02 136.72ZM430.26 112.07V110.08C430.31 109.27 429.7 108.58 428.89 108.53H428.7V108.51C427.9 108.43 427.19 109.02 427.11 109.82C427.1 109.89 427.1 109.96 427.11 110.02V112.07C427.21 112.94 428 113.56 428.87 113.46C429.6 113.37 430.18 112.8 430.26 112.07ZM430.26 136.1V116.87C430.26 115.83 429.7 115.24 428.73 115.23H428.72C427.74 115.24 427.14 115.86 427.14 116.9V136.12C427.08 136.65 427.32 137.17 427.77 137.45C428.3 137.8 428.99 137.82 429.55 137.5C430.05 137.22 430.33 136.66 430.27 136.09M444.02 115.04C444.02 115.04 444.03 115.04 444.04 115.04H444.02ZM455.73 135.97V124.45C455.73 123.81 455.66 123.17 455.53 122.54C454.54 117.04 449.32 114.07 444.03 115.04C441.52 115.42 439.3 116.87 437.96 119.01V116.79C438.02 116.15 437.67 115.54 437.09 115.27C435.97 114.77 434.89 115.51 434.89 116.78V135.64C434.89 136.97 435.43 137.6 436.34 137.63C437.67 137.68 438.01 136.97 438.02 135.71C438.02 132.35 437.96 129.35 438.04 125.99C438.13 122.47 439.81 119.9 443.04 118.45C447.74 116.36 452.61 119.57 452.61 124.7V135.91C452.61 137.08 453.16 137.69 454.19 137.71C455.23 137.73 455.73 137.12 455.73 135.97Z" fill="#005CA1"/>
</g>
<defs>
<clipPath id="clip0_4703_46">
<rect width="571.74" height="146.03" fill="white"/>
</clipPath>
</defs>
</svg>
