<svg width="39" height="39" viewBox="0 0 39 39" fill="none" xmlns="http://www.w3.org/2000/svg">
<g id="blank-calendar--blank-calendar-date-day-month-empty">
<path id="Vector" d="M4.69231 6.03809C3.97825 6.03809 3.29347 6.32175 2.78856 6.82664C2.28365 7.33155 2 8.01634 2 8.73039V34.3073C2 35.0213 2.28365 35.7062 2.78856 36.211C3.29347 36.7159 3.97825 36.9996 4.69231 36.9996H34.3077C35.0217 36.9996 35.7066 36.7159 36.2114 36.211C36.7162 35.7062 37 35.0213 37 34.3073V8.73039C37 8.01634 36.7162 7.33155 36.2114 6.82664C35.7066 6.32175 35.0217 6.03809 34.3077 6.03809H28.9231" stroke="#00B0D9" stroke-width="2.33333" stroke-linecap="round" stroke-linejoin="round"/>
<path id="Vector_2" d="M2 15.4614H37" stroke="#00B0D9" stroke-width="2.33333" stroke-linecap="round" stroke-linejoin="round"/>
<path id="Vector_3" d="M10.0781 2V10.0769" stroke="#00B0D9" stroke-width="2.33333" stroke-linecap="round" stroke-linejoin="round"/>
<path id="Vector_4" d="M28.9219 2V10.0769" stroke="#00B0D9" stroke-width="2.33333" stroke-linecap="round" stroke-linejoin="round"/>
<path id="Vector_5" d="M4.625 6.03809H28.6875" stroke="#00B0D9" stroke-width="2.33333" stroke-linecap="round" stroke-linejoin="round"/>
</g>
</svg>
