<svg width="20" height="20" viewBox="0 0 20 20" fill="none" xmlns="http://www.w3.org/2000/svg">
<path d="M14.1641 1.6665H5.83073C3.52954 1.6665 1.66406 3.53198 1.66406 5.83317V14.1665C1.66406 16.4677 3.52954 18.3332 5.83073 18.3332H14.1641C16.4652 18.3332 18.3307 16.4677 18.3307 14.1665V5.83317C18.3307 3.53198 16.4652 1.6665 14.1641 1.6665Z" stroke="white" stroke-width="1.30435" stroke-linecap="round" stroke-linejoin="round"/>
<path d="M13.3298 9.47501C13.4327 10.1685 13.3142 10.8769 12.9913 11.4992C12.6684 12.1215 12.1575 12.6262 11.5312 12.9414C10.9049 13.2566 10.1952 13.3663 9.50299 13.255C8.81077 13.1436 8.1713 12.8167 7.67553 12.321C7.17976 11.8252 6.85294 11.1857 6.74156 10.4935C6.63017 9.8013 6.73989 9.09159 7.05511 8.46532C7.37032 7.83905 7.87499 7.32812 8.49732 7.00521C9.11965 6.68229 9.82796 6.56383 10.5215 6.66667C11.2289 6.77158 11.8839 7.10123 12.3896 7.60693C12.8953 8.11263 13.2249 8.76757 13.3298 9.47501Z" stroke="white" stroke-width="1.30435" stroke-linecap="round" stroke-linejoin="round"/>
<path d="M14.582 5.4165H14.5913" stroke="white" stroke-width="1.30435" stroke-linecap="round" stroke-linejoin="round"/>
</svg>
