<svg width="24" height="19" viewBox="0 0 24 19" fill="none" xmlns="http://www.w3.org/2000/svg">
<path d="M20.0735 0.208496H3.70632C2.0628 0.208496 0.730469 1.55563 0.730469 3.21741V15.2531C0.730469 16.9148 2.0628 18.262 3.70632 18.262H20.0735C21.717 18.262 23.0493 16.9148 23.0493 15.2531V3.21741C23.0493 1.55563 21.717 0.208496 20.0735 0.208496Z" fill="#459A45"/>
<path opacity="0.15" d="M20.0735 0.208496H3.70632C2.0629 0.208496 0.730469 1.55574 0.730469 3.21741V15.2531C0.730469 16.9147 2.0629 18.262 3.70632 18.262H20.0735C21.7169 18.262 23.0493 16.9147 23.0493 15.2531V3.21741C23.0493 1.55574 21.7169 0.208496 20.0735 0.208496ZM22.3054 15.2531C22.3054 16.4972 21.304 17.5097 20.0735 17.5097H3.70632C2.4758 17.5097 1.47443 16.4972 1.47443 15.2531V3.21741C1.47443 1.97322 2.4758 0.960724 3.70632 0.960724H20.0735C21.304 0.960724 22.3054 1.97322 22.3054 3.21741V15.2531Z" fill="black"/>
<path d="M2.57031 9.23511L11.8907 15.2529L21.211 9.23511L11.8907 3.21729L2.57031 9.23511Z" fill="#FEDF00"/>
<path d="M11.8917 12.9964C13.9461 12.9964 15.6115 11.3125 15.6115 9.23526C15.6115 7.15804 13.9461 5.47412 11.8917 5.47412C9.83729 5.47412 8.17188 7.15804 8.17188 9.23526C8.17188 11.3125 9.83729 12.9964 11.8917 12.9964Z" fill="#0A2172"/>
<path d="M10.4038 8.10648C9.66203 8.10648 8.94708 8.21857 8.26636 8.41415C8.20833 8.67743 8.17262 8.94823 8.17188 9.22881C8.87417 8.99186 9.62334 8.85796 10.403 8.85796C12.2808 8.85796 13.9859 9.60718 15.2529 10.8198C15.366 10.5745 15.4582 10.3188 15.5178 10.048C14.1459 8.84141 12.3596 8.10498 10.403 8.10498L10.4038 8.10648Z" fill="white"/>
<path opacity="0.2" d="M20.0717 0.960938H3.70454C2.4718 0.960938 1.47266 1.97118 1.47266 3.21762V3.96985C1.47266 2.72341 2.4718 1.71317 3.70454 1.71317H20.0717C21.3044 1.71317 22.3036 2.72341 22.3036 3.96985V3.21762C22.3036 1.97118 21.3044 0.960938 20.0717 0.960938Z" fill="white"/>
</svg>
